<svg xmlns="http://www.w3.org/2000/svg" viewBox="0 0 256 256" fill="none">
  <defs>
    <linearGradient id="bg" x1="40" x2="212" y1="26" y2="236" gradientUnits="userSpaceOnUse">
      <stop stop-color="#121A26"/>
      <stop offset="1" stop-color="#05080D"/>
    </linearGradient>
    <linearGradient id="sheen" x1="58" x2="200" y1="54" y2="120" gradientUnits="userSpaceOnUse">
      <stop stop-color="#A7F3FF"/>
      <stop offset="1" stop-color="#A7F3FF" stop-opacity="0"/>
    </linearGradient>
    <linearGradient id="ribbonA" x1="68" x2="167" y1="106" y2="154" gradientUnits="userSpaceOnUse">
      <stop stop-color="#38BDF8"/>
      <stop offset="1" stop-color="#2563EB"/>
    </linearGradient>
    <linearGradient id="ribbonB" x1="128" x2="205" y1="72" y2="184" gradientUnits="userSpaceOnUse">
      <stop stop-color="#93E8FF"/>
      <stop offset=".42" stop-color="#38BDF8"/>
      <stop offset="1" stop-color="#1D4ED8"/>
    </linearGradient>
    <linearGradient id="node" x1="112" x2="174" y1="84" y2="188" gradientUnits="userSpaceOnUse">
      <stop stop-color="#F8FCFF"/>
      <stop offset="1" stop-color="#D7E8FF"/>
    </linearGradient>
    <filter id="shadow" width="232" height="232" x="12" y="16" color-interpolation-filters="sRGB" filterUnits="userSpaceOnUse">
      <feFlood flood-opacity="0" result="BackgroundImageFix"/>
      <feColorMatrix in="SourceAlpha" result="hardAlpha" values="0 0 0 0 0 0 0 0 0 0 0 0 0 0 0 0 0 0 127 0"/>
      <feOffset dy="4"/>
      <feGaussianBlur stdDeviation="8"/>
      <feComposite in2="hardAlpha" operator="out"/>
      <feColorMatrix values="0 0 0 0 0 0 0 0 0 0.0235294 0 0 0 0 0.0784314 0 0 0 0.34 0"/>
      <feBlend in2="BackgroundImageFix" result="effect1_dropShadow_0_1"/>
      <feBlend in="SourceGraphic" in2="effect1_dropShadow_0_1" result="shape"/>
    </filter>
  </defs>
  <g filter="url(#shadow)">
    <rect width="224" height="224" x="16" y="20" fill="url(#bg)" rx="52"/>
    <rect width="221" height="221" x="17.5" y="21.5" stroke="#2B3647" stroke-opacity=".9" rx="50.5"/>
    <path fill="url(#sheen)" fill-opacity=".28" d="M34 55c26-18 74-26 136-18 23 3 41 10 52 18v49c-39-21-117-30-188-11V55Z"/>
    <path fill="url(#ribbonA)" d="m71 133 48-50c6-6 16-8 24-4l19 10-47 44 47 44-19 10c-8 4-18 2-24-4l-48-50Z"/>
    <path fill="url(#ribbonB)" d="m132 82 71-22-24 59 26 14-26 14 24 59-71-22 24-51Z"/>
    <path fill="#C4F1FF" fill-opacity=".18" d="m133 82 46-14-18 44 18 10-18 10 18 45-46-14 15-30h-34l31-29Z"/>
    <path stroke="#F6FBFF" stroke-linecap="round" stroke-linejoin="round" stroke-width="9" d="m101 133 50-37 33-19m-33 19 32 32m-82 5 50 28 33 24"/>
    <circle cx="101" cy="133" r="11" fill="url(#node)" stroke="#0F172A" stroke-width="4"/>
    <circle cx="151" cy="96" r="10" fill="url(#node)" stroke="#0F172A" stroke-width="4"/>
    <circle cx="184" cy="77" r="10" fill="url(#node)" stroke="#0F172A" stroke-width="4"/>
    <circle cx="183" cy="128" r="10" fill="url(#node)" stroke="#0F172A" stroke-width="4"/>
    <circle cx="151" cy="161" r="10" fill="url(#node)" stroke="#0F172A" stroke-width="4"/>
    <circle cx="184" cy="185" r="10" fill="url(#node)" stroke="#0F172A" stroke-width="4"/>
  </g>
</svg>
